<?xml version="1.0" encoding="UTF-8"?>
<svg width="200px" height="76px" viewBox="0 0 200 76" version="1.1" xmlns="http://www.w3.org/2000/svg" xmlns:xlink="http://www.w3.org/1999/xlink">
    <!-- Generator: Sketch 52.6 (67491) - http://www.bohemiancoding.com/sketch -->
    <title>Slice</title>
    <desc>Created with Sketch.</desc>
    <g id="Page-1" stroke="none" stroke-width="1" fill="none" fill-rule="evenodd">
        <g id="Group-8" fill="#353E4E">
            <g id="google_2015" transform="translate(30.000000, 15.000000)">
                <path d="M34.5601846,16.2484755 L18.2563972,16.2484755 L18.2563972,21.0863944 L29.8190238,21.0863944 C29.2478126,27.8704559 23.6036895,30.7635776 18.2759469,30.7635776 C11.4596601,30.7635776 5.51179315,25.4005497 5.51179315,17.8835538 C5.51179315,10.5609273 11.1816685,4.92144615 18.2910028,4.92144615 C23.7759273,4.92144615 27.0079231,8.418 27.0079231,8.418 L30.3953273,4.91015385 C30.3953273,4.91015385 26.0475091,0.0699300699 18.1178685,0.0699300699 C8.02137357,0.0699300699 0.20979021,8.5921972 0.20979021,17.7973455 C0.20979021,26.8173315 7.55794629,35.6132112 18.3756867,35.6132112 C27.8904937,35.6132112 34.8554098,29.0951916 34.8554098,19.4571734 C34.8554098,17.4237329 34.5601846,16.2484755 34.5601846,16.2484755 Z" id="path2998"></path>
                <path d="M47.9158657,12.7452476 C41.2261077,12.7452476 36.4318545,17.9752573 36.4318545,24.0750503 C36.4318545,30.2650322 41.0820056,35.5923217 47.9944825,35.5923217 C54.2521497,35.5923217 59.3787119,30.8094685 59.3787119,24.2080937 C59.3787119,16.6419832 53.4153273,12.7452476 47.9158657,12.7452476 Z M47.9823874,17.2324182 C51.272242,17.2324182 54.389607,19.8920783 54.389607,24.1778559 C54.389607,28.3727133 51.2853469,31.1081762 47.9672685,31.1081762 C44.3213455,31.1081762 41.4451497,28.1881692 41.4451497,24.1445958 C41.4451497,20.1877413 44.2856825,17.2324182 47.9823874,17.2324182 Z" id="path3000" fill-rule="nonzero"></path>
                <path d="M72.892993,12.7452476 C66.2032336,12.7452476 61.4089818,17.9752573 61.4089818,24.0750503 C61.4089818,30.2650322 66.0591329,35.5923217 72.9716084,35.5923217 C79.2292755,35.5923217 84.3558378,30.8094685 84.3558378,24.2080937 C84.3558378,16.6419832 78.3924531,12.7452476 72.892993,12.7452476 Z M72.9595133,17.2324182 C76.2493678,17.2324182 79.3667329,19.8920783 79.3667329,24.1778559 C79.3667329,28.3727133 76.2624741,31.1081762 72.9443958,31.1081762 C69.2984713,31.1081762 66.4222755,28.1881692 66.4222755,24.1445958 C66.4222755,20.1877413 69.2628084,17.2324182 72.9595133,17.2324182 Z" id="path3005" fill-rule="nonzero"></path>
                <path d="M97.3896448,12.7573427 C91.249179,12.7573427 86.4226811,18.135449 86.4226811,24.1718084 C86.4226811,31.0477832 92.0183217,35.6074406 97.2838098,35.6074406 C100.539614,35.6074406 102.270835,34.3150587 103.548916,32.8316839 L103.548916,35.0843413 C103.548916,39.0256168 101.155839,41.3857301 97.543849,41.3857301 C94.0544699,41.3857301 92.304221,38.7911385 91.696014,37.3188545 L87.3056014,39.1542406 C88.8631538,42.4474643 91.9984308,45.881972 97.5801329,45.881972 C103.685239,45.881972 108.338456,42.0364699 108.338456,33.9716196 L108.338456,13.4437217 L103.548916,13.4437217 L103.548916,15.3788895 C102.077241,13.7920434 100.063399,12.7573427 97.3896448,12.7573427 Z M97.8341231,17.235442 C100.844674,17.235442 103.93595,19.8060084 103.93595,24.1959986 C103.93595,28.658042 100.851263,31.1172462 97.7676028,31.1172462 C94.4939944,31.1172462 91.4480699,28.4591441 91.4480699,24.2383301 C91.4480699,19.8525259 94.6115469,17.235442 97.8341231,17.235442 Z" id="path3007" fill-rule="nonzero"></path>
                <path d="M129.634378,12.7301287 C123.842159,12.7301287 118.97886,17.3384965 118.97886,24.1385483 C118.97886,31.3338951 124.399758,35.601393 130.190738,35.601393 C135.02405,35.601393 137.990484,32.957228 139.76075,30.5880993 L135.811785,27.9605049 C134.787057,29.5508014 133.073944,31.1051524 130.214927,31.1051524 C127.003429,31.1051524 125.52682,29.346621 124.612007,27.6430154 L139.930064,21.2871986 L139.134834,19.4246 C137.654442,15.7769189 134.202255,12.7301287 129.634378,12.7301287 Z M129.833931,17.123565 C131.921098,17.123565 133.423175,18.2332434 134.061074,19.5636909 L123.831894,23.8392014 C123.390888,20.5290629 126.526799,17.123565 129.833931,17.123565 Z" id="path3011" fill-rule="nonzero"></path>
                <polygon id="path3015" points="111.676621 34.9228448 116.708057 34.9228448 116.708057 1.25092448 111.676621 1.25092448"></polygon>
            </g>
        </g>
    </g>
</svg>