<?xml version="1.0" encoding="UTF-8"?>
<svg width="200px" height="76px" viewBox="0 0 200 76" version="1.1" xmlns="http://www.w3.org/2000/svg" xmlns:xlink="http://www.w3.org/1999/xlink">
    <!-- Generator: Sketch 52.6 (67491) - http://www.bohemiancoding.com/sketch -->
    <title>Slice</title>
    <desc>Created with Sketch.</desc>
    <g id="Page-1" stroke="none" stroke-width="1" fill="none" fill-rule="evenodd">
        <g id="Group-8" fill="#353E4E" fill-rule="nonzero">
            <g id="amazon-2" transform="translate(30.000000, 17.000000)">
                <path d="M86.4098841,32.8354042 C78.3476197,38.7965936 66.6206897,41.9726372 56.5062125,41.9726372 C42.336172,41.9726372 29.6319978,36.7443808 19.9572805,28.0469077 C19.2243473,27.3628368 19.8595561,26.4344548 20.787938,26.9719391 C31.1955884,33.030853 44.0463493,36.6466564 57.33687,36.6466564 C66.2786542,36.6466564 76.1488203,34.7898925 85.2371911,30.929778 C86.605333,30.3922937 87.7291638,31.85816 86.4098841,32.8354042 Z" id="Path"></path>
                <path d="M89.7813765,28.9752897 C88.7552701,27.6560101 82.9406673,28.340081 80.3509703,28.6821164 C79.5691749,28.7798408 79.4225883,28.0957699 80.1555214,27.6071478 C84.7974312,24.3333799 92.3710736,25.310624 93.2505933,26.3855926 C94.1301131,27.4605612 93.0062823,35.0830658 88.6575457,38.6988692 C87.9734748,39.2363535 87.3382661,38.9431802 87.6314393,38.2102471 C88.6086835,35.7671367 90.8074829,30.3434315 89.7813765,28.9752897 Z" id="Path"></path>
                <path d="M80.4975569,4.64190981 L80.4975569,1.46586626 C80.4975569,0.977244171 80.8395923,0.68407092 81.2793522,0.68407092 L95.4493927,0.68407092 C95.8891526,0.68407092 96.2800503,1.02610638 96.2800503,1.46586626 L96.2800503,4.15328773 C96.2800503,4.59304761 95.8891526,5.17939411 95.2050817,6.15663828 L87.8757504,16.6131509 C90.6120341,16.5642887 93.4949044,16.9551864 95.9380148,18.3233282 C96.4754991,18.6165015 96.6220857,19.1051236 96.6709479,19.5448834 L96.6709479,22.9163758 C96.6709479,23.4049979 96.1823258,23.9424822 95.6448415,23.6493089 C91.296105,21.3527851 85.4815022,21.1084741 80.6930057,23.6981712 C80.2043836,23.9424822 79.6668993,23.4538601 79.6668993,22.965238 L79.6668993,19.7403323 C79.6668993,19.2517102 79.6668993,18.3721904 80.2043836,17.5903951 L88.7064079,5.42370515 L81.3282144,5.42370515 C80.8884546,5.42370515 80.4975569,5.08166969 80.4975569,4.64190981 Z M28.8502024,24.3333799 L24.5503281,24.3333799 C24.1594304,24.2845177 23.8173949,23.9913444 23.7685327,23.6004467 L23.7685327,1.51472847 C23.7685327,1.07496859 24.1594304,0.732933129 24.5991903,0.732933129 L28.6058914,0.732933129 C29.0456513,0.732933129 29.3388245,1.07496859 29.3876867,1.46586626 L29.3876867,4.34873656 L29.4854111,4.34873656 C30.5115175,1.56359067 32.5148681,0.244311043 35.1534273,0.244311043 C37.8408488,0.244311043 39.5510261,1.56359067 40.7237191,4.34873656 C41.7498255,1.56359067 44.1440737,0.244311043 46.6849086,0.244311043 C48.4928103,0.244311043 50.4472986,0.977244171 51.6688538,2.68742147 C53.0369957,4.5441854 52.7438224,7.23160687 52.7438224,9.62585509 L52.7438224,23.6004467 C52.7438224,24.0402066 52.3529248,24.3822421 51.9131649,24.3822421 L47.6621527,24.3822421 C47.2223929,24.3333799 46.8803574,23.9913444 46.8803574,23.6004467 L46.8803574,11.8735167 C46.8803574,10.9451347 46.9780818,8.59974871 46.782633,7.72022895 C46.4405975,6.2543627 45.5122156,5.81460282 44.2417981,5.81460282 C43.2156917,5.81460282 42.091861,6.49867374 41.6521011,7.62250454 C41.2123412,8.74633533 41.2612034,10.6030993 41.2612034,11.8735167 L41.2612034,23.6004467 C41.2612034,24.0402066 40.8703057,24.3822421 40.4305459,24.3822421 L36.1306715,24.3822421 C35.6909116,24.3333799 35.3488762,23.9913444 35.3488762,23.6004467 L35.3488762,11.8735167 C35.3488762,9.43040625 35.7397738,5.76574061 32.7103169,5.76574061 C29.6319978,5.76574061 29.7297222,9.28381963 29.7297222,11.8735167 L29.7297222,23.6004467 C29.68086,23.9913444 29.3388245,24.3333799 28.8502024,24.3333799 Z M108.495602,0.244311043 C114.896552,0.244311043 118.365769,5.7168784 118.365769,12.7041742 C118.365769,19.447159 114.554516,24.822002 108.495602,24.822002 C102.24124,24.822002 98.8208851,19.3494346 98.8208851,12.5087254 C98.7720229,5.61915399 102.24124,0.244311043 108.495602,0.244311043 Z M108.495602,4.78849644 C105.319559,4.78849644 105.12411,9.137233 105.12411,11.8246545 C105.12411,14.5120759 105.075248,20.2778166 108.44674,20.2778166 C111.76937,20.2778166 111.964819,15.6359067 111.964819,12.8018986 C111.964819,10.9451347 111.867095,8.69747313 111.32961,6.93843362 C110.840988,5.37484294 109.863744,4.78849644 108.495602,4.78849644 Z M126.623482,24.3333799 L122.323607,24.3333799 C121.883848,24.2845177 121.541812,23.9424822 121.541812,23.5515845 L121.541812,1.41700405 C121.590674,1.02610638 121.93271,0.68407092 122.37247,0.68407092 L126.379171,0.68407092 C126.770068,0.68407092 127.063242,0.977244171 127.160966,1.31927963 L127.160966,4.69077202 L127.25869,4.69077202 C128.480246,1.66131509 130.141561,0.244311043 133.122156,0.244311043 C135.027782,0.244311043 136.933408,0.928381963 138.154963,2.8340081 C139.278794,4.59304761 139.278794,7.57364233 139.278794,9.72357951 L139.278794,23.6493089 C139.229932,24.0402066 138.887896,24.3333799 138.448136,24.3333799 L134.148262,24.3333799 C133.757364,24.2845177 133.415329,23.9913444 133.366467,23.6493089 L133.366467,11.6292056 C133.366467,9.18609521 133.65964,5.66801619 130.679045,5.66801619 C129.652939,5.66801619 128.675695,6.35208711 128.187072,7.4270557 C127.600726,8.79519754 127.503002,10.1144772 127.503002,11.6292056 L127.503002,23.5515845 C127.454139,23.9913444 127.063242,24.3333799 126.623482,24.3333799 Z M73.5591233,24.2845177 C73.26595,24.5288287 72.8750524,24.5776909 72.5330169,24.3822421 C71.1160128,23.2095491 70.8228396,22.6232026 70.0410443,21.4993718 C67.6956582,23.89362 65.9854809,24.6265531 62.956024,24.6265531 C59.3402206,24.6265531 56.5062125,22.3788915 56.5062125,17.9324305 C56.5062125,14.4143515 58.4118386,12.0689655 61.0992601,10.8962725 C63.4446461,9.87016613 66.7184141,9.6747173 69.2103867,9.38154405 L69.2103867,8.84405975 C69.2103867,7.81795337 69.3081111,6.59639816 68.6729024,5.7168784 C68.1354181,4.93508307 67.1581739,4.59304761 66.2786542,4.59304761 C64.6173391,4.59304761 63.1514728,5.42370515 62.8094374,7.18274466 C62.711713,7.57364233 62.4674019,7.96454 62.0765043,7.96454 L57.9232165,7.52478012 C57.5811811,7.4270557 57.1902834,7.18274466 57.2880078,6.64526037 C58.265252,1.56359067 62.8094374,0.0488622086 66.9138629,0.0488622086 C69.0149379,0.0488622086 71.7512216,0.586346503 73.4125366,2.19879939 C75.5136116,4.15328773 75.3181628,6.79184699 75.3181628,9.62585509 L75.3181628,16.3199777 C75.3181628,18.3233282 76.1488203,19.202848 76.9306157,20.3266788 C77.2237889,20.7175764 77.2726511,21.2061985 76.9306157,21.4505096 C76.0022337,22.1834427 74.438643,23.5515845 73.5591233,24.2845177 Z M69.2103867,13.7791428 L69.2103867,12.8507609 C66.0832054,12.8507609 62.8094374,13.5348318 62.8094374,17.1994974 C62.8094374,19.0562613 63.7866816,20.3266788 65.4479966,20.3266788 C66.6695519,20.3266788 67.7445205,19.5937456 68.4285914,18.3721904 C69.2592489,16.857462 69.2103867,15.4404579 69.2103867,13.7791428 Z M17.0744102,24.2845177 C16.7812369,24.5288287 16.3903392,24.5776909 16.0483038,24.3822421 C14.6312997,23.2095491 14.3381265,22.6232026 13.5563311,21.4993718 C11.2109451,23.89362 9.50076783,24.6265531 6.4713109,24.6265531 C2.85550747,24.6265531 0.0214993718,22.3788915 0.0214993718,17.9324305 C0.0214993718,14.4143515 1.92712551,12.0689655 4.61454698,10.8962725 C6.95993299,9.87016613 10.233701,9.6747173 12.7256736,9.38154405 L12.7256736,8.84405975 C12.7256736,7.81795337 12.823398,6.59639816 12.1881893,5.7168784 C11.650705,4.93508307 10.6734608,4.59304761 9.79394109,4.59304761 C8.13262599,4.59304761 6.66675974,5.42370515 6.32472428,7.18274466 C6.22699986,7.57364233 5.98268882,7.96454 5.59179115,7.96454 L1.43850342,7.52478012 C1.09646796,7.4270557 0.705570292,7.18274466 0.803294709,6.64526037 C1.78053888,1.56359067 6.32472428,0.0488622086 10.4291498,0.0488622086 C12.5302248,0.0488622086 15.2665084,0.586346503 16.9278235,2.19879939 C19.0288985,4.15328773 18.8334497,6.79184699 18.8334497,9.62585509 L18.8334497,16.3199777 C18.8334497,18.3233282 19.6641072,19.202848 20.4459026,20.3266788 C20.7390758,20.7175764 20.787938,21.2061985 20.4459026,21.4505096 C19.5175206,22.1834427 17.9539299,23.5515845 17.0744102,24.2845177 Z M12.7745358,13.7791428 L12.7745358,12.8507609 C9.64735446,12.8507609 6.37358649,13.5348318 6.37358649,17.1994974 C6.37358649,19.0562613 7.35083066,20.3266788 9.01214575,20.3266788 C10.233701,20.3266788 11.3086696,19.5937456 11.9927405,18.3721904 C12.823398,16.857462 12.7745358,15.4404579 12.7745358,13.7791428 Z" id="Shape"></path>
            </g>
        </g>
    </g>
</svg>