<?xml version="1.0" encoding="UTF-8"?>
<svg width="200px" height="76px" viewBox="0 0 200 76" version="1.1" xmlns="http://www.w3.org/2000/svg" xmlns:xlink="http://www.w3.org/1999/xlink">
    <!-- Generator: Sketch 52.6 (67491) - http://www.bohemiancoding.com/sketch -->
    <title>Slice</title>
    <desc>Created with Sketch.</desc>
    <g id="Page-1" stroke="none" stroke-width="1" fill="none" fill-rule="evenodd">
        <g id="Group-8" fill="#353E4E">
            <g id="oracle" transform="translate(11.000000, 26.000000)">
                <path d="M76.1142857,14.9714286 L87.7714286,14.9714286 L81.6,5.02857143 L70.2857143,22.9714286 L65.1428571,22.9714286 L78.8571429,1.37142857 C79.4285714,0.457142857 80.4571429,3.55271368e-15 81.6,3.55271368e-15 C82.6285714,3.55271368e-15 83.6571429,0.457142857 84.2285714,1.37142857 L98.0571429,22.9714286 L92.9142857,22.9714286 L90.5142857,18.9714286 L78.7428571,18.9714286 L76.1142857,14.9714286" id="Path"></path>
                <path d="M129.6,18.8571429 L129.6,0.228571429 L125.257143,0.228571429 L125.257143,20.8 C125.257143,21.3714286 125.485714,21.9428571 125.942857,22.2857143 C126.4,22.7428571 126.971429,22.9714286 127.542857,22.9714286 L147.428571,22.9714286 L150.057143,18.9714286 L129.6,18.8571429" id="Path"></path>
                <path d="M57.3714286,15.5428571 C61.6,15.5428571 65.0285714,12.1142857 65.0285714,7.88571429 C65.0285714,3.65714286 61.6,0.228571429 57.3714286,0.228571429 L38.2857143,0.228571429 L38.2857143,22.9714286 L42.6285714,22.9714286 L42.6285714,4.22857143 L57.0285714,4.22857143 C59.0857143,4.22857143 60.6857143,5.82857143 60.6857143,7.88571429 C60.6857143,9.94285714 59.0857143,11.5428571 57.0285714,11.5428571 L44.6857143,11.5428571 L57.7142857,22.9714286 L64,22.9714286 L55.2,15.6571429 L57.3714286,15.5428571" id="Path"></path>
                <path d="M11.3142857,22.9714286 C5.02857143,22.9714286 0,17.9428571 0,11.6571429 C0,5.37142857 5.02857143,0.342857143 11.3142857,0.342857143 L24.4571429,0.342857143 C30.7428571,0.342857143 35.7714286,5.37142857 35.7714286,11.6571429 C35.7714286,17.9428571 30.7428571,22.9714286 24.4571429,22.9714286 L11.3142857,22.9714286 M24.2285714,18.9714286 C28.3428571,18.9714286 31.5428571,15.6571429 31.5428571,11.6571429 C31.5428571,7.54285714 28.2285714,4.34285714 24.2285714,4.34285714 L11.6571429,4.34285714 C7.65714286,4.34285714 4.34285714,7.65714286 4.34285714,11.6571429 C4.34285714,15.6571429 7.65714286,18.9714286 11.6571429,18.9714286 L24.2285714,18.9714286" id="Shape" fill-rule="nonzero"></path>
                <path d="M107.2,22.9714286 C100.914286,22.9714286 95.7714286,17.9428571 95.7714286,11.6571429 C95.7714286,5.37142857 100.914286,0.342857143 107.2,0.342857143 L122.857143,0.342857143 L120.228571,4.34285714 L107.428571,4.34285714 C103.314286,4.34285714 100,7.65714286 100,11.6571429 C100,15.6571429 103.314286,18.9714286 107.428571,18.9714286 L123.2,18.9714286 L120.685714,22.9714286 L107.2,22.9714286" id="Path"></path>
                <path d="M160.571429,18.9714286 C157.257143,18.9714286 154.4,16.6857143 153.485714,13.6 L172.228571,13.6 L174.742857,9.6 L153.485714,9.6 C154.4,6.51428571 157.257143,4.22857143 160.571429,4.22857143 L173.371429,4.22857143 L175.885714,0.228571429 L160.228571,0.228571429 C153.942857,0.228571429 148.914286,5.25714286 148.914286,11.5428571 C148.914286,17.8285714 153.942857,22.8571429 160.228571,22.8571429 L173.714286,22.8571429 L176.228571,18.8571429 L160.571429,18.8571429" id="Path"></path>
            </g>
        </g>
    </g>
</svg>