<?xml version="1.0" encoding="UTF-8"?>
<svg width="200px" height="76px" viewBox="0 0 200 76" version="1.1" xmlns="http://www.w3.org/2000/svg" xmlns:xlink="http://www.w3.org/1999/xlink">
    <!-- Generator: Sketch 52.6 (67491) - http://www.bohemiancoding.com/sketch -->
    <title>Slice</title>
    <desc>Created with Sketch.</desc>
    <g id="Page-1" stroke="none" stroke-width="1" fill="none" fill-rule="evenodd">
        <g id="Group-8" fill="#353E4E">
            <g id="Group-14" transform="translate(17.000000, 19.000000)">
                <path d="M0.0500039008,26.0469787 C-0.0882514183,26.4075745 0.0993230498,26.482766 0.143791135,26.5466383 C0.556940071,26.8457872 0.976557092,27.0624681 1.40021667,27.3058298 C3.64383369,28.4935319 5.76455709,28.842 7.97987624,28.842 C12.4937911,28.842 15.297706,26.4423404 15.297706,22.5776596 L15.297706,22.5016596 C15.297706,18.9280426 12.1323869,17.6295745 9.16596135,16.6925106 L8.77868475,16.5671915 C6.54153582,15.8411489 4.61081241,15.2129362 4.61081241,13.7390213 L4.61081241,13.6638298 C4.61081241,12.4017447 5.73949326,11.474383 7.48830177,11.474383 C9.43276986,11.474383 11.7370252,12.120383 13.2230677,12.9410213 C13.2230677,12.9410213 13.6612805,13.224 13.8205571,12.8011489 C13.9070677,12.5723404 14.6581741,10.5494468 14.7382167,10.3303404 C14.8239188,10.0934468 14.6735358,9.91476596 14.5191103,9.82259574 C12.8220465,8.78851064 10.4781741,8.08510638 8.05183369,8.08510638 L7.60149326,8.0867234 C3.4700039,8.0867234 0.585237943,10.5850213 0.585237943,14.1602553 L0.585237943,14.2370638 C0.585237943,18.0047234 3.76753582,19.229617 6.74851454,20.0809787 L7.22715284,20.2297447 C9.3980039,20.8959574 11.2729401,21.471617 11.2729401,22.9988936 L11.2729401,23.0748936 C11.2729401,24.473617 10.0545145,25.5125532 8.09225922,25.5125532 C7.33145071,25.5125532 4.90268475,25.499617 2.27825922,23.8397447 C1.96051454,23.6545957 1.77940816,23.5211915 1.53442943,23.371617 C1.40506773,23.2931915 1.08166348,23.1517021 0.940982624,23.5753617 L0.0500039008,26.0469787" id="Fill-4"></path>
                <path d="M66.3478474,26.0469787 C66.2095921,26.4075745 66.3971666,26.482766 66.4432517,26.5466383 C66.8547836,26.8457872 67.2752091,27.0624681 67.6980602,27.3058298 C69.9424857,28.4935319 72.0632091,28.842 74.2777198,28.842 C78.7916347,28.842 81.5963581,26.4423404 81.5963581,22.5776596 L81.5963581,22.5016596 C81.5963581,18.9280426 78.4318474,17.6295745 75.4646134,16.6925106 L75.0773368,16.5671915 C72.8401879,15.8411489 70.908656,15.2129362 70.908656,13.7390213 L70.908656,13.6638298 C70.908656,12.4017447 72.0381453,11.474383 73.7877623,11.474383 C75.7314219,11.474383 78.0348687,12.120383 79.5209113,12.9410213 C79.5209113,12.9410213 79.959124,13.224 80.1192091,12.8011489 C80.2049113,12.5723404 80.9568262,10.5494468 81.0360602,10.3303404 C81.1225708,10.0934468 80.9713794,9.91476596 80.8177623,9.82259574 C79.11989,8.78851064 76.7768262,8.08510638 74.3504857,8.08510638 L73.8993368,8.0867234 C69.768656,8.0867234 66.88389,10.5850213 66.88389,14.1602553 L66.88389,14.2370638 C66.88389,18.0047234 70.0653794,19.229617 73.0471666,20.0809787 L73.5249964,20.2297447 C75.696656,20.8959574 77.5715921,21.471617 77.5715921,22.9988936 L77.5715921,23.0748936 C77.5715921,24.473617 76.3523581,25.5125532 74.3917198,25.5125532 C73.6292942,25.5125532 71.2005283,25.499617 68.5769113,23.8397447 C68.2591666,23.6545957 68.0732091,23.5268511 67.832273,23.371617 C67.7506134,23.3198723 67.3698049,23.1711064 67.2396347,23.5753617 L66.3478474,26.0469787" id="Fill-5"></path>
                <path d="M111.102298,18.4170638 C111.102298,20.6000426 110.694809,22.3237872 109.894383,23.5389787 C109.098809,24.7436596 107.89817,25.3298298 106.223745,25.3298298 C104.549319,25.3298298 103.355149,24.7444681 102.572511,23.5405957 C101.782596,22.3245957 101.381574,20.6000426 101.381574,18.4170638 C101.381574,16.2357021 101.782596,14.517617 102.572511,13.3145532 C103.355149,12.122 104.549319,11.5431064 106.223745,11.5431064 C107.89817,11.5431064 109.098809,12.1228085 109.894383,13.3153617 C110.696426,14.517617 111.102298,16.2357021 111.102298,18.4170638 M114.871574,14.3688511 C114.500468,13.1164681 113.924,12.0144681 113.156723,11.0951915 C112.38783,10.1734894 111.415191,9.43208511 110.262255,8.89523404 C109.110936,8.35757447 107.752638,8.08510638 106.223745,8.08510638 C104.694851,8.08510638 103.335745,8.35757447 102.183617,8.89523404 C101.032298,9.43208511 100.058851,10.1734894 99.2899574,11.0968085 C98.5234894,12.0177021 97.9454043,13.1180851 97.5759149,14.3688511 C97.2080426,15.6115319 97.0212766,16.9738723 97.0212766,18.4170638 C97.0212766,19.8610638 97.2080426,21.2242128 97.5759149,22.4652766 C97.9454043,23.715234 98.5218723,24.8164255 99.290766,25.7389362 C100.05966,26.6622553 101.035532,27.3971915 102.185234,27.9211064 C103.33817,28.4450213 104.696468,28.7118298 106.223745,28.7118298 C107.75183,28.7118298 109.108511,28.4450213 110.260638,27.9211064 C111.411957,27.3971915 112.386213,26.6622553 113.156723,25.7389362 C113.924,24.8196596 114.500468,23.7168511 114.871574,22.4652766 C115.238638,21.2217872 115.425404,19.8594468 115.425404,18.4170638 C115.425404,16.9754894 115.238638,15.6123404 114.871574,14.3688511" id="Fill-6"></path>
                <path d="M146.295957,24.7638723 C146.172255,24.397617 145.814894,24.5358723 145.814894,24.5358723 C145.267532,24.7452766 144.685404,24.9393191 144.062851,25.0363404 C143.435447,25.1349787 142.740936,25.1842979 141.997915,25.1842979 C140.17634,25.1842979 138.725064,24.6417872 137.689362,23.5697021 C136.648809,22.4968085 136.064255,20.7633617 136.070723,18.4186809 C136.076383,16.2874468 136.592213,14.6817447 137.517149,13.4576596 C138.434,12.2416596 139.83434,11.6174894 141.69634,11.6174894 C143.251106,11.6174894 144.437191,11.7977872 145.679872,12.1874894 C145.679872,12.1874894 145.974979,12.3160426 146.116468,11.9271489 C146.447149,11.0111064 146.691319,10.3594468 147.04383,9.35285106 C147.144085,9.06582979 146.898298,8.94455319 146.808553,8.90978723 C146.320213,8.71897872 145.166468,8.40608511 144.295702,8.27429787 C143.481532,8.14978723 142.529915,8.08510638 141.46834,8.08510638 C139.886085,8.08510638 138.475234,8.35595745 137.268936,8.89280851 C136.065064,9.42885106 135.043915,10.1694468 134.234596,11.0903404 C133.425277,12.0128511 132.809191,13.1148511 132.401702,14.3648085 C131.993404,15.6082979 131.787234,16.9730638 131.787234,18.4202979 C131.787234,21.5451915 132.630511,24.0701702 134.293617,25.9200426 C135.962383,27.776383 138.465532,28.7191064 141.732723,28.7191064 C143.662638,28.7191064 145.642681,28.3285957 147.068894,27.7674894 C147.068894,27.7674894 147.340553,27.6365106 147.222511,27.3195745 L146.295957,24.7638723" id="Fill-7"></path>
                <path d="M152.413149,16.3238298 C152.593447,15.1102553 152.925745,14.1020426 153.444,13.3145532 C154.22583,12.122 155.415957,11.4646809 157.090383,11.4646809 C158.765617,11.4646809 159.869234,12.1228085 160.664809,13.3153617 C161.19034,14.1036596 161.419957,15.1539149 161.509702,16.3254468 L152.413149,16.3238298 Z M165.097872,13.6581702 C164.776894,12.4502553 163.98617,11.2302128 163.466298,10.6723404 C162.64566,9.78782979 161.842,9.16851064 161.044,8.82651064 C160.005064,8.38102128 158.756723,8.08510638 157.391957,8.08510638 C155.8,8.08510638 154.353574,8.35434043 153.180426,8.90412766 C152.00566,9.45553191 151.018468,10.2090638 150.244723,11.1453191 C149.469362,12.080766 148.888043,13.1940851 148.516936,14.4569787 C148.145021,15.7125957 147.957447,17.0814043 147.957447,18.5270213 C147.957447,19.9968936 148.152298,21.3673191 148.535532,22.5994894 C148.922809,23.8421702 149.544553,24.9328511 150.383787,25.8408085 C151.222213,26.752 152.301574,27.4667234 153.591149,27.964766 C154.874255,28.462 156.433064,28.7199149 158.220681,28.7142553 C161.905872,28.7021277 163.843872,27.8806809 164.644298,27.4384255 C164.785787,27.3591915 164.919191,27.2225532 164.752638,26.8288085 L163.918255,24.4938298 C163.790511,24.1453617 163.438,24.2714894 163.438,24.2714894 C162.523574,24.6126809 161.229149,25.2214894 158.202085,25.2150213 C156.224468,25.2117872 154.759447,24.627234 153.838553,23.7144255 C152.896638,22.7805957 152.43417,21.4093617 152.355745,19.4721702 L165.107574,19.4818723 C165.107574,19.4818723 165.443915,19.4786383 165.478681,19.150383 C165.492426,19.0145532 165.916085,16.5308085 165.097872,13.6581702 Z" id="Fill-8"></path>
                <path d="M50.54,16.3238298 C50.7202979,15.1102553 51.0534043,14.1020426 51.5708511,13.3145532 C52.3534894,12.122 53.542,11.4646809 55.2180426,11.4646809 C56.8932766,11.4646809 57.9968936,12.1228085 58.7924681,13.3153617 C59.3171915,14.1036596 59.5468085,15.1539149 59.6365532,16.3254468 L50.54,16.3238298 Z M63.2247234,13.6581702 C62.9045532,12.4502553 62.1130213,11.2302128 61.5939574,10.6723404 C60.7733191,9.78782979 59.9704681,9.16851064 59.1716596,8.82651064 C58.1311064,8.38102128 56.8835745,8.08510638 55.519617,8.08510638 C53.9276596,8.08510638 52.481234,8.35434043 51.3080851,8.90412766 C50.1333191,9.45553191 49.1461277,10.2090638 48.370766,11.1453191 C47.5970213,12.080766 47.0157021,13.1940851 46.6429787,14.4569787 C46.2718723,15.7125957 46.0851064,17.0814043 46.0851064,18.5270213 C46.0851064,19.9968936 46.2783404,21.3673191 46.664,22.5994894 C47.0504681,23.8421702 47.6730213,24.9328511 48.5106383,25.8408085 C49.3498723,26.752 50.4284255,27.4667234 51.718,27.964766 C53.0019149,28.462 54.5591064,28.7199149 56.3483404,28.7142553 C60.0327234,28.7021277 61.9715319,27.8806809 62.7719574,27.4384255 C62.9126383,27.3591915 63.0468511,27.2225532 62.8794894,26.8288085 L62.0459149,24.4938298 C61.9173617,24.1453617 61.5648511,24.2714894 61.5648511,24.2714894 C60.651234,24.6126809 59.3568085,25.2214894 56.3289362,25.2150213 C54.3521277,25.2117872 52.8862979,24.627234 51.9654043,23.7144255 C51.0242979,22.7805957 50.5610213,21.4093617 50.4825957,19.4721702 L63.235234,19.4818723 C63.235234,19.4818723 63.5715745,19.4786383 63.6063404,19.150383 C63.6200851,19.0145532 64.0437447,16.5308085 63.2247234,13.6581702 Z" id="Fill-9"></path>
                <path d="M23.0401277,24.6943404 C22.5396596,24.2949362 22.4701277,24.1971064 22.304383,23.9375745 C22.0513191,23.5470638 21.9219574,22.9908085 21.9219574,22.2785106 C21.9219574,21.1587234 22.2938723,20.3518298 23.0603404,19.8101277 C23.0522553,19.8117447 24.1599149,18.8544681 26.7592766,18.8884255 C28.5865106,18.9118723 30.2221277,19.1835319 30.2221277,19.1835319 L30.2221277,24.9805532 L30.2237447,24.9805532 C30.2237447,24.9805532 28.6026809,25.3290213 26.7778723,25.4389787 C24.1841702,25.5950213 23.0320426,24.6919149 23.0401277,24.6943404 Z M28.1151489,15.7311915 C27.5977021,15.6931915 26.9274468,15.6745957 26.1237872,15.6745957 C25.0314894,15.6745957 23.974766,15.8104255 22.9827234,16.077234 C21.9866383,16.3456596 21.0908085,16.761234 20.3202979,17.3118298 C19.5449362,17.8680851 18.922383,18.5755319 18.469617,19.4155745 C18.0176596,20.257234 17.787234,21.2460426 17.787234,22.3545106 C17.787234,23.485617 17.9837021,24.4655319 18.3717872,25.2659574 C18.7622979,26.0720426 19.3209787,26.7439149 20.0348936,27.2629787 C20.7439574,27.7788085 21.618766,28.1571915 22.6334468,28.3884255 C23.6351915,28.617234 24.7703404,28.7328511 26.0105957,28.7328511 C27.320383,28.7328511 28.6228936,28.6228936 29.8849787,28.4102553 C31.1365532,28.1968085 32.6711064,27.8847234 33.0971915,27.7860851 C33.5224681,27.6882553 33.9914043,27.5597021 33.9914043,27.5597021 C34.3067234,27.4796596 34.2824681,27.1425106 34.2824681,27.1425106 L34.2751915,15.4789362 C34.2751915,12.9208085 33.5928085,11.0256596 32.2482553,9.84846809 C30.9101702,8.67693617 28.9398298,8.08510638 26.3905957,8.08510638 C25.4333191,8.08510638 23.8955319,8.21446809 22.9722128,8.39961702 C22.9722128,8.39961702 20.1877021,8.93970213 19.041234,9.83795745 C19.041234,9.83795745 18.7889787,9.99319149 18.9264255,10.3448936 L19.8295319,12.7704255 C19.9419149,13.0849362 20.2483404,12.9774043 20.2483404,12.9774043 C20.2483404,12.9774043 20.3445532,12.9394043 20.4577447,12.8722979 C22.910766,11.5382553 26.0146383,11.5778723 26.0146383,11.5778723 C27.3923404,11.5778723 28.4539149,11.8568085 29.1670213,12.4025532 C29.8631489,12.9369787 30.2164681,13.7414468 30.2164681,15.4417447 L30.2164681,15.9810213 C29.1225532,15.8225532 28.1151489,15.7311915 28.1151489,15.7311915 Z" id="Fill-10"></path>
                <path d="M130.627021,9.73698799 C130.724851,9.44915821 130.519489,9.30928587 130.435404,9.27775395 C130.217915,9.19528587 129.133702,8.96647735 128.297702,8.91473267 C126.694426,8.81447735 125.805872,9.08451991 125.008681,9.44349863 C124.217957,9.80005182 123.34234,10.3765199 122.854,11.0338391 L122.852383,9.47826459 C122.852383,9.26481778 122.701191,9.09260501 122.486128,9.09260501 L119.216511,9.09260501 C119.004681,9.09260501 118.851064,9.26481778 118.851064,9.47826459 L118.851064,28.5041369 C118.851064,28.7175837 119.024085,28.8914135 119.23834,28.8914135 L122.589617,28.8914135 C122.803064,28.8914135 122.976085,28.7175837 122.976085,28.5041369 L122.976085,19.0000944 C122.976085,17.7234561 123.116766,16.4516688 123.397319,15.6520518 C123.67383,14.8605199 124.049787,14.2298816 124.515489,13.7763071 C124.979574,13.3243497 125.510766,13.0057965 126.090468,12.8287327 C126.683915,12.6484348 127.338809,12.5877965 127.801277,12.5877965 C128.468298,12.5877965 129.202426,12.7592008 129.202426,12.7592008 C129.448213,12.7866901 129.584851,12.6363071 129.668128,12.4147752 C129.887234,11.8318391 130.50817,10.0846476 130.627021,9.73698799" id="Fill-11"></path>
                <path d="M99.6249753,0.433361702 C99.2174859,0.308042553 98.8479965,0.223957447 98.3645072,0.134212766 C97.8737412,0.0452765957 97.290805,0 96.6310604,0 C94.3243795,0 92.5060391,0.651659574 91.2294008,1.93880851 C89.9616561,3.21625532 89.0989753,5.16234043 88.6664221,7.72289362 L88.5103795,8.58719149 L85.6151029,8.58719149 C85.6151029,8.58719149 85.2617838,8.5726383 85.1874008,8.95829787 L84.7119965,11.6102128 C84.6788476,11.8640851 84.7879965,12.0225532 85.127571,12.0209362 L87.9460391,12.0209362 L85.086337,27.9833617 C84.8623795,29.2688936 84.6060816,30.3264255 84.3222944,31.1276596 C84.0425497,31.918383 83.7692731,32.5110213 83.4329327,32.9411489 C83.1071029,33.3575319 82.7982519,33.6639574 82.2654433,33.8426383 C81.8256136,33.9905957 81.3194859,34.0585106 80.7648476,34.0585106 C80.4559965,34.0585106 80.0452731,34.006766 79.7420816,33.9461277 C79.4388902,33.8862979 79.2812306,33.818383 79.0540391,33.7229787 C79.0540391,33.7229787 78.7233582,33.5968511 78.593188,33.9283404 C78.4872731,34.1991915 77.7361667,36.2649362 77.6472306,36.5204255 C77.5566774,36.7726809 77.6836136,36.9715745 77.8436987,37.0289787 C78.2188476,37.1631915 78.4977838,37.2488936 79.0087625,37.3693617 C79.7186348,37.5367234 80.3169327,37.547234 80.8772306,37.547234 C82.051188,37.547234 83.1208476,37.3822979 84.0077838,37.0621277 C84.9003795,36.7395319 85.6773582,36.177617 86.3645923,35.4168085 C87.1076136,34.5961702 87.5749327,33.7367234 88.0220391,32.564383 C88.4642944,31.4025532 88.8410604,29.9601702 89.1426348,28.2792766 L92.0160816,12.0209362 L96.2171029,12.0209362 C96.2171029,12.0209362 96.5712306,12.0338723 96.644805,11.6498298 L97.1202093,8.99791489 C97.1533582,8.74404255 97.0450178,8.58557447 96.7038263,8.58719149 L92.6265072,8.58719149 C92.6467199,8.49502128 92.8318689,7.0607234 93.2999965,5.71051064 C93.4996987,5.13404255 93.8756561,4.66914894 94.1942093,4.34978723 C94.5071029,4.03608511 94.8668902,3.81212766 95.2622519,3.68519149 C95.6673157,3.55340426 96.1273582,3.48791489 96.6310604,3.48791489 C97.0151029,3.48791489 97.3918689,3.534 97.6788902,3.59382979 C98.0742519,3.67791489 98.2278689,3.72238298 98.3313582,3.75310638 C98.7469327,3.88004255 98.8027199,3.75714894 98.8843795,3.55582979 L99.8594433,0.878042553 C99.9596987,0.590212766 99.7155284,0.46893617 99.6249753,0.433361702" id="Fill-12"></path>
                <path d="M42.1137021,28.4142979 C42.1137021,28.6277447 41.9617021,28.8015745 41.7482553,28.8015745 L38.3662553,28.8015745 C38.152,28.8015745 38,28.6277447 38,28.4142979 L38,1.1933617 C38,0.980723404 38.152,0.808510638 38.3662553,0.808510638 L41.7482553,0.808510638 C41.9617021,0.808510638 42.1137021,0.980723404 42.1137021,1.1933617 L42.1137021,28.4142979" id="Fill-13"></path>
            </g>
        </g>
    </g>
</svg>