<?xml version="1.0" encoding="UTF-8"?>
<svg width="200px" height="76px" viewBox="0 0 200 76" version="1.1" xmlns="http://www.w3.org/2000/svg" xmlns:xlink="http://www.w3.org/1999/xlink">
    <!-- Generator: Sketch 52.6 (67491) - http://www.bohemiancoding.com/sketch -->
    <title>Slice</title>
    <desc>Created with Sketch.</desc>
    <g id="Page-1" stroke="none" stroke-width="1" fill="none" fill-rule="evenodd">
        <g id="Group-8" fill="#353E4E">
            <g id="Fill-2" transform="translate(23.000000, 23.000000)">
                <path d="M24.5843669,8.20327976 L24.5843669,28.9875283 L29.2309965,28.9875283 L29.2309965,1.97795719 L22.8007104,1.97795719 L14.6264573,22.0389096 L6.69271048,1.97795719 L1.42108547e-14,1.97795719 L1.42108547e-14,28.9875283 L4.36643379,28.9875283 L4.36643379,8.20091024 L4.51630596,8.20091024 L12.8931531,28.9863435 L16.1885636,28.9863435 L24.4344948,8.20268738 L24.5843669,8.20327976 Z M34.0055802,2.14619314 C33.4659219,2.65327051 33.1922423,3.29185627 33.1922423,4.04417901 C33.1922423,4.78583891 33.46296,5.41257706 33.9955097,5.90662208 C34.5262823,6.39888995 35.1820471,6.64768959 35.9444403,6.64768959 C36.7074259,6.64768959 37.3643754,6.39888995 37.9022566,5.90721446 C38.4430996,5.41316944 38.7167792,4.78643129 38.7167792,4.04417901 C38.7167792,3.317921 38.4502082,2.6864438 37.924767,2.16692644 C37.3993259,1.64859385 36.7328982,1.38557708 35.9444403,1.38557708 C35.1950795,1.38557708 34.5422766,1.6408929 34.0055802,2.14619314 Z M33.6211255,28.9875283 L38.1747514,28.9875283 L38.1747514,9.63150821 L33.6211255,9.63150821 L33.6211255,28.9875283 Z M46.2169038,10.4957908 C44.6281403,11.3802143 43.4013211,12.6437611 42.5654728,14.2508883 C41.7337711,15.8544613 41.3114041,17.72579 41.3114041,19.8133375 C41.3114041,21.6426073 41.7201464,23.3202278 42.52993,24.7999933 C43.340306,26.2809436 44.4865615,27.4402314 45.936708,28.2429065 C47.3862621,29.0461739 49.0603283,29.4531391 50.9138857,29.4531391 C53.0784426,29.4531391 54.9248914,29.0218863 56.4058417,28.1664895 L56.4662645,28.1333162 L56.4662645,23.9623678 L56.2755181,24.1003924 C55.6043514,24.589106 54.8549906,24.9788921 54.0481688,25.260865 C53.2431243,25.5416532 52.5079806,25.683232 51.8646558,25.683232 C50.0780373,25.683232 48.6444775,25.1246176 47.6048504,24.0221982 C46.5604843,22.9180017 46.0314888,21.3695201 46.0314888,19.4194048 C46.0314888,17.4562571 46.5835871,15.8674936 47.6706046,14.694581 C48.7546602,13.5252227 50.1917743,12.9322502 51.9410728,12.9322502 C53.4368326,12.9322502 54.8958648,13.4387352 56.2749257,14.4392652 L56.4656721,14.5778821 L56.4656721,10.1830141 L56.4040645,10.1480637 C55.8845472,9.85720503 55.1778377,9.61729108 54.2969685,9.43543039 C53.4238002,9.2565316 52.5666262,9.16471268 51.7532883,9.16471268 C49.6651484,9.16471268 47.8009282,9.61255204 46.2169038,10.4957908 Z M64.460434,9.63091583 L59.9062157,9.63091583 L59.9062157,28.9863435 L64.460434,28.9863435 L64.460434,19.0853024 C64.460434,17.4005733 64.8425192,16.0179582 65.5954343,14.9741844 C66.3394637,13.9416659 67.331108,13.4185942 68.5413406,13.4185942 C68.9506753,13.4185942 69.411547,13.4861256 69.910331,13.6200035 C70.4043761,13.753289 70.7621736,13.8972374 70.9724686,14.0488867 L71.163215,14.1875036 L71.163215,9.59715016 L71.0891675,9.56575401 C70.6644309,9.38567046 70.0649423,9.29444392 69.3061033,9.29444392 C68.161625,9.29444392 67.1379921,9.66171959 66.2606772,10.3856081 C65.4899907,11.0218243 64.9349305,11.8938078 64.5090092,12.9820101 L64.460434,12.9820101 L64.460434,9.63091583 Z M74.1802069,11.9441602 C72.3728552,13.7894242 71.4564431,16.3425825 71.4564431,19.5337341 C71.4564431,22.5643508 72.3521219,25.0008102 74.1138603,26.7779505 C75.8773759,28.5539061 78.2777001,29.4549162 81.2467092,29.4549162 C84.3407105,29.4549162 86.8257451,28.5065156 88.6330968,26.636964 C90.438079,24.7685972 91.354491,22.2391341 91.354491,19.1232147 C91.354491,16.0446153 90.4961322,13.5891997 88.7995556,11.8244994 C87.1053485,10.059799 84.7216109,9.16471268 81.7146895,9.16471268 C78.5211683,9.16471268 75.9863738,10.1000809 74.1802069,11.9441602 Z M77.588762,24.0370077 C76.6528015,22.9393274 76.1794897,21.3736667 76.1794897,19.3844543 C76.1794897,17.3312649 76.6528015,15.7265072 77.588762,14.6080935 C78.517614,13.4979732 79.8238122,12.9346197 81.4729984,12.9346197 C83.0706476,12.9346197 84.3424877,13.4725008 85.2541606,14.5346384 C86.1693879,15.6026997 86.6344063,17.1967946 86.6344063,19.2730869 C86.6344063,21.3748515 86.1984145,22.9890873 85.3365015,24.0695886 C84.4787351,25.1412042 83.1920855,25.6850092 81.509726,25.6850092 C79.8368445,25.6850092 78.5164293,25.1305414 77.588762,24.0370077 Z M95.6054107,10.8150837 C94.225165,11.9163183 93.5249717,13.3611334 93.5249717,15.1092471 C93.5249717,16.0185506 93.6754363,16.8247799 93.9728111,17.5095713 C94.2737402,18.1967322 94.7352043,18.8015523 95.3506872,19.3086297 C95.9614311,19.8127452 96.9033155,20.3393711 98.1520528,20.8760675 C99.201158,21.3079126 99.9848768,21.6734111 100.482476,21.9613078 C100.968228,22.2438731 101.314178,22.5270308 101.508478,22.8030799 C101.696855,23.07439 101.792821,23.4434428 101.792821,23.9007603 C101.792821,25.2010346 100.81954,25.8348814 98.8161109,25.8348814 C98.0732662,25.8348814 97.2237931,25.6790854 96.2961259,25.374602 C95.3672739,25.0677491 94.4982523,24.6282031 93.7163105,24.0648496 L93.5255641,23.9291945 L93.5255641,28.3655292 L93.5948726,28.3992948 C94.2476755,28.7008163 95.0698991,28.954355 96.0384405,29.1533947 C97.0057973,29.3536192 97.8848894,29.4555086 98.6484673,29.4555086 C101.004363,29.4555086 102.901757,28.8974865 104.285556,27.7950671 C105.679427,26.6867239 106.385544,25.2081432 106.385544,23.398422 C106.385544,22.0945933 106.005828,20.9755873 105.256467,20.0722076 C104.512438,19.1777137 103.219865,18.3572672 101.418437,17.6298244 C99.9836921,17.0534386 99.0637258,16.5765726 98.6857873,16.2098893 C98.3214735,15.8544613 98.133689,15.3539001 98.133689,14.7188686 C98.133689,14.1555151 98.3641249,13.7053062 98.8338823,13.3398077 C99.3083788,12.972532 99.9676978,12.7859323 100.796438,12.7859323 C101.564755,12.7859323 102.350251,12.9073702 103.131008,13.1443223 C103.911765,13.3818667 104.598333,13.6999748 105.169388,14.0897609 L105.357764,14.2183074 L105.357764,10.0088543 L105.285494,9.97745819 C104.757091,9.75116899 104.061044,9.55746069 103.215126,9.39988758 C102.372761,9.24349923 101.609183,9.16471268 100.945125,9.16471268 C98.7734595,9.16471268 96.9779554,9.71977284 95.6054107,10.8150837 Z M111.09852,11.9441602 C109.292353,13.7894242 108.375349,16.3425825 108.375349,19.5337341 C108.375349,22.563166 109.270435,25.0008102 111.033358,26.7779505 C112.796874,28.5539061 115.196013,29.4549162 118.165022,29.4549162 C121.259616,29.4549162 123.744058,28.5065156 125.550818,26.636964 C127.358762,24.7685972 128.272804,22.2391341 128.272804,19.1232147 C128.272804,16.0446153 127.414445,13.5891997 125.719054,11.8244994 C124.023069,10.059799 121.638739,9.16471268 118.634187,9.16471268 C115.441851,9.16471268 112.907057,10.1000809 111.09852,11.9441602 Z M114.50589,24.0370077 C113.571115,22.9393274 113.096618,21.3736667 113.096618,19.3844543 C113.096618,17.3312649 113.571115,15.7265072 114.507075,14.6080935 C115.437112,13.4979732 116.74331,12.9346197 118.390719,12.9346197 C119.988961,12.9346197 121.261986,13.4725008 122.172474,14.5346384 C123.088886,15.6026997 123.553312,17.1967946 123.553312,19.2730869 C123.553312,21.3748515 123.116728,22.9890873 122.254815,24.0695886 C121.398233,25.1412042 120.110399,25.6850092 118.428039,25.6850092 C116.755158,25.6850092 115.435927,25.1305414 114.50589,24.0370077 Z M152.560981,9.63150821 L147.949302,9.63150821 L147.949302,3.85817166 L147.794098,3.90615444 L143.462023,5.23130875 L143.376128,5.25737347 L143.376128,9.63150821 L136.540653,9.63150821 L136.540653,7.19445643 C136.540653,6.06004852 136.794192,5.19161928 137.294753,4.61227154 C137.790575,4.04062473 138.501432,3.7497661 139.405996,3.7497661 C140.057614,3.7497661 140.729966,3.90319254 141.410018,4.20649116 L141.580031,4.28231581 L141.580031,0.371422329 L141.50006,0.341803323 C140.867398,0.114921741 140.006669,-3.55271368e-15 138.938608,-3.55271368e-15 C137.593313,-3.55271368e-15 136.371233,0.292635774 135.305541,0.873168282 C134.238072,1.45370079 133.399262,2.28303294 132.813398,3.33746954 C132.226941,4.39012899 131.930751,5.60687774 131.930751,6.95276535 L131.930751,9.63210059 L128.718866,9.63210059 L128.718866,13.3451391 L131.930751,13.3451391 L131.930751,28.9875283 L136.538876,28.9875283 L136.538876,13.3451391 L143.375535,13.3451391 L143.375535,23.2864621 C143.375535,27.3798087 145.306694,29.4549162 149.114514,29.4549162 C149.741252,29.4549162 150.399978,29.3808687 151.071738,29.2375127 C151.757121,29.0906024 152.223324,28.9425074 152.497596,28.7855267 L152.559204,28.7499839 L152.559204,25.0019949 L152.372012,25.1258024 C152.120843,25.2928536 151.810436,25.4302857 151.444937,25.5309904 C151.078846,25.6340645 150.771993,25.6861939 150.535041,25.6861939 C149.642324,25.6861939 148.982413,25.4450952 148.572486,24.9711912 C148.15782,24.4919556 147.947525,23.6543302 147.947525,22.4831947 L147.947525,13.3457315 L152.560389,13.3457315 L152.560981,9.63150821 Z" id="Fill-1"></path>
            </g>
        </g>
    </g>
</svg>